# xmcd
#
# Track frame offsets: 
#        150
#        23752
#        50062
#        66942
#        81896
#        113428
#        144864
#        177152
#        192587
#        225307
#        245892
#        263695
#        285303
#        308239
#        332188
#
# Disc length: 4677 seconds
#
# Revision: 0
# Processed by: cddbd v1.5.2PL0 Copyright (c) Steve Scherf et al.
# Submitted via: ExactAudioCopy v0.95b4
#
DISCID=ce12430f
DTITLE=Instant Funk - The Anthology CD1
DYEAR=2006
DGENRE=Funk
TTITLE0=I Got My Mind Made Up
TTITLE1=Crying
TTITLE2=Don't You Wanna Party
TTITLE3=Wide World Of Sports
TTITLE4=Dark Vader
TTITLE5=I'll Be Doggone
TTITLE6=Slap Slap Lickedy Lap
TTITLE7=Witch Doctor
TTITLE8=Bodyshine
TTITLE9=It's You Love On My Mind
TTITLE10=Scream and Shout
TTITLE11=The Funk Is On
TTITLE12=Everybody
TTITLE13=It's Cool
TTITLE14=Can You See Where I'm Coming From
EXTD=
EXTT0=
EXTT1=
EXTT2=
EXTT3=
EXTT4=
EXTT5=
EXTT6=
EXTT7=
EXTT8=
EXTT9=
EXTT10=
EXTT11=
EXTT12=
EXTT13=
EXTT14=
PLAYORDER=
